<?xml version="1.0" encoding="UTF-8"?><svg xmlns="http://www.w3.org/2000/svg" class="header" enable-background="new 0 0 235 47" fill="none" height="40px" preserveAspectRatio="xMidYMid meet" viewBox="0 0 235 47" width="200px"><path d="M127.006 25.5925C127.539 21.8617 129.484 19.4234 133.375 19.4234C137.359 19.4234 139.451 21.7018 139.77 25.5925H127.006ZM133.468 15.7593C127.259 15.7593 122.289 20.2362 122.289 27.6444C122.289 35.2392 126.673 39.8893 134.041 39.8893C138.291 39.8893 141.822 38.0106 144.007 35.4124C144.141 35.2791 144.181 35.1459 144.181 35.0126C144.181 34.8794 144.141 34.7462 144.007 34.6129L141.955 32.601C141.822 32.4677 141.689 32.4278 141.556 32.4278C141.423 32.4278 141.289 32.521 141.156 32.6543C139.464 34.493 137.265 36.0519 134.094 36.0519C129.471 36.0519 127.246 33.2006 126.899 29.0834H144.061C144.367 29.0834 144.594 28.8569 144.594 28.5504V27.6577C144.594 20.8624 140.49 15.7593 133.468 15.7593Z" fill="#191E3B"/><path d="M161.846 25.5925C162.379 21.8617 164.324 19.4234 168.215 19.4234C172.198 19.4234 174.29 21.7018 174.61 25.5925H161.846ZM168.308 15.7593C162.099 15.7593 157.129 20.2362 157.129 27.6444C157.129 35.2392 161.513 39.8893 168.881 39.8893C173.131 39.8893 176.662 38.0106 178.847 35.4124C178.98 35.2791 179.02 35.1459 179.02 35.0126C179.02 34.8794 178.98 34.7462 178.847 34.6129L176.795 32.601C176.662 32.4677 176.529 32.4278 176.396 32.4278C176.262 32.4278 176.129 32.521 175.996 32.6543C174.304 34.493 172.105 36.0519 168.934 36.0519C164.311 36.0519 162.085 33.2006 161.739 29.0834H178.901C179.207 29.0834 179.433 28.8569 179.433 28.5504V27.6577C179.433 20.8624 175.33 15.7593 168.308 15.7593Z" fill="#191E3B"/><path d="M74.1493 7.9375H70.4452C70.1388 7.9375 69.9122 8.16401 69.9122 8.47047V20.9818H54.856V8.47047C54.856 8.16401 54.6295 7.9375 54.323 7.9375H50.6189C50.3124 7.9375 50.0859 8.16401 50.0859 8.47047V38.6896C50.0859 38.996 50.3124 39.2225 50.6189 39.2225H54.323C54.6295 39.2225 54.856 38.996 54.856 38.6896V25.1922H69.9122V38.6896C69.9122 38.996 70.1388 39.2225 70.4452 39.2225H74.1493C74.4558 39.2225 74.6823 38.996 74.6823 38.6896V8.47047C74.6956 8.16401 74.4691 7.9375 74.1493 7.9375Z" fill="#191E3B"/><path d="M152.733 7.9375H149.162C148.855 7.9375 148.629 8.16401 148.629 8.47047V38.6896C148.629 38.996 148.855 39.2225 149.162 39.2225H152.733C153.039 39.2225 153.266 38.996 153.266 38.6896V8.47047C153.266 8.16401 153.039 7.9375 152.733 7.9375Z" fill="#191E3B"/><path d="M91.0574 35.972C86.1008 35.972 83.4626 32.2679 83.4626 27.8309C83.4626 23.4073 86.1008 19.6899 91.0574 19.6899C96.014 19.6899 98.6521 23.394 98.6521 27.8309C98.6521 32.2545 96.014 35.972 91.0574 35.972ZM91.0574 15.7593C84.3953 15.7593 78.8125 20.6759 78.8125 27.8309C78.8125 34.986 84.3953 39.9026 91.0574 39.9026C97.7194 39.9026 103.302 34.986 103.302 27.8309C103.302 20.6759 97.7061 15.7593 91.0574 15.7593Z" fill="#191E3B"/><path d="M119.57 16.4784H113.761V8.92361C113.761 8.52388 113.361 8.33734 113.095 8.61715L109.47 12.2413C109.244 12.4678 109.111 12.6943 109.111 13.0408V16.4917H105.127C104.82 16.4917 104.594 16.7182 104.594 17.0247V19.5296C104.594 19.8494 104.82 20.0626 105.127 20.0626H109.111V32.2675C109.111 36.5179 111.123 39.236 115.373 39.236H119.57C119.877 39.236 120.103 39.0095 120.103 38.703V35.8383C120.103 35.5319 119.877 35.3054 119.57 35.3054H116.625C114.52 35.3054 113.761 34.5059 113.761 32.4007V20.0626H119.57C119.877 20.0626 120.103 19.8361 120.103 19.5296V17.0114C120.103 16.7049 119.877 16.4784 119.57 16.4784Z" fill="#191E3B"/><path d="M205.189 37.2905H203.644C203.484 37.2905 203.391 37.3971 203.391 37.5437V38.9827C203.391 39.1426 203.497 39.2359 203.644 39.2359H205.189C205.349 39.2359 205.443 39.1293 205.443 38.9827V37.5437C205.443 37.3971 205.349 37.2905 205.189 37.2905Z" fill="#191E3B"/><path d="M219.103 38.0103C217.664 38.0103 216.931 37.0376 216.931 35.7452C216.931 34.506 217.65 33.4801 219.103 33.4801C220.555 33.4801 221.261 34.506 221.261 35.7452C221.261 37.0376 220.542 38.0103 219.103 38.0103ZM219.103 32.0811C217.091 32.0811 215.398 33.5734 215.398 35.7452C215.398 37.957 217.104 39.4093 219.103 39.4093C221.114 39.4093 222.807 37.9703 222.807 35.7452C222.807 33.5867 221.114 32.0811 219.103 32.0811Z" fill="#191E3B"/><path d="M192.815 25.5925C189.151 24.793 187.366 24.1668 187.366 22.2881C187.366 20.5027 188.978 19.4234 191.843 19.4234C194.388 19.4234 196.4 20.5826 197.705 22.4213C197.879 22.6878 198.198 22.7278 198.465 22.5546L200.877 20.9957C201.143 20.8224 201.236 20.5426 201.05 20.2362C199.078 17.2383 195.96 15.7593 191.883 15.7593C187.326 15.7593 183.262 17.9977 183.262 22.5546C183.262 27.3379 187.059 28.5904 192.069 29.6563C195.6 30.4158 197.159 31.0021 197.159 33.094C197.159 35.1459 195.32 36.2251 192.242 36.2251C189.018 36.2251 186.966 34.9727 185.54 32.8675C185.367 32.561 185.047 32.4677 184.741 32.6942L182.329 34.3997C182.063 34.5729 182.023 34.8528 182.156 35.1192C183.995 38.2104 187.379 39.9426 192.216 39.9426C198.252 39.9426 201.743 36.9446 201.743 32.9208C201.716 28.2307 197.825 26.7117 192.815 25.5925Z" fill="#191E3B"/><path d="M232.013 32.0811C230.987 32.0811 230.307 32.4941 229.748 33.1603C229.388 32.5474 228.615 32.0811 227.682 32.0811C226.71 32.0811 226.083 32.5474 225.724 33.0537V32.5474C225.724 32.3875 225.617 32.2942 225.471 32.2942H224.445C224.285 32.2942 224.191 32.4008 224.191 32.5474V38.9963C224.191 39.1562 224.298 39.2494 224.445 39.2494H225.524C225.684 39.2494 225.777 39.1428 225.777 38.9963V35.6519C225.777 34.3595 226.137 33.4934 227.269 33.4934C228.242 33.4934 228.562 34.0664 228.562 34.9857V39.0096C228.562 39.1695 228.668 39.2628 228.815 39.2628H229.894C230.054 39.2628 230.147 39.1562 230.147 39.0096V35.6652C230.147 34.3728 230.56 33.5067 231.693 33.5067C232.626 33.5067 232.985 34.0797 232.985 34.999V39.0229C232.985 39.1828 233.092 39.2761 233.238 39.2761H234.318C234.478 39.2761 234.571 39.1695 234.571 39.0229V34.7992C234.598 33.1736 233.612 32.0811 232.013 32.0811Z" fill="#191E3B"/><path d="M213.665 36.931C213.505 36.7711 213.359 36.8244 213.252 36.931C212.533 37.7038 212.066 38.0103 211.294 38.0103C210.001 38.0103 209.335 37.0376 209.335 35.7452C209.335 34.506 209.908 33.4801 211.24 33.4801C212.12 33.4801 212.586 33.8398 213.039 34.3595C213.146 34.4661 213.292 34.5194 213.452 34.4128L214.065 33.8931C214.225 33.7865 214.318 33.64 214.172 33.4268C213.599 32.654 212.626 32.0811 211.227 32.0811C209.108 32.0811 207.723 33.5201 207.723 35.7452C207.723 37.9703 209.108 39.4493 211.174 39.4493C212.613 39.4493 213.652 38.8364 214.318 37.9037C214.425 37.7438 214.425 37.6505 214.318 37.5439L213.665 36.931Z" fill="#191E3B"/><path d="M30.0059 42.4741H7.76797C3.4776 42.4741 0 38.9965 0 34.7061V12.4682C0 8.17779 3.4776 4.7002 7.76797 4.7002H30.0059C34.2963 4.7002 37.7739 8.17779 37.7739 12.4682V34.7061C37.7739 38.9965 34.2963 42.4741 30.0059 42.4741Z" fill="#EF3346"/><path d="M13.4566 21.4353C13.4566 21.1289 13.2301 20.9023 12.9237 20.9023H9.25953C8.95307 20.9023 8.72656 21.1289 8.72656 21.4353V25.0994C8.72656 25.4059 8.95307 25.6324 9.25953 25.6324H12.9237C13.2301 25.6324 13.4566 25.4059 13.4566 25.0994V21.4353Z" fill="#191E3B"/><path d="M21.5699 29.5496C21.5699 29.2431 21.3434 29.0166 21.0369 29.0166H17.3728C17.0664 29.0166 16.8398 29.2431 16.8398 29.5496V33.2137C16.8398 33.5202 17.0664 33.7467 17.3728 33.7467H21.0369C21.3567 33.7467 21.5699 33.5202 21.5699 33.2137V29.5496Z" fill="#191E3B"/><path d="M21.5699 21.4353C21.5699 21.1289 21.3434 20.9023 21.0369 20.9023H17.3728C17.0664 20.9023 16.8398 21.1289 16.8398 21.4353V25.0994C16.8398 25.4059 17.0664 25.6324 17.3728 25.6324H21.0369C21.3567 25.6324 21.5699 25.4059 21.5699 25.0994V21.4353Z" fill="#FDDB32"/><path d="M30.9681 13.9205C30.9681 12.5747 29.8889 11.5088 28.5565 11.5088H10.4889C10.1292 11.5088 9.90268 11.642 9.68949 11.8685L6.06533 15.4794C5.79885 15.7459 5.97206 16.1456 6.37179 16.1456H26.3047V36.0785C26.3047 36.4782 26.7044 36.6647 26.9709 36.3849L30.595 32.7608C30.8216 32.5343 30.9548 32.3078 30.9548 31.9613L30.9681 13.9205Z" fill="#191E3B"/></svg>